<?xml version="1.0" standalone="no"?>
<!DOCTYPE svg PUBLIC "-//W3C//DTD SVG 20010904//EN"
 "http://www.w3.org/TR/2001/REC-SVG-20010904/DTD/svg10.dtd">
<svg version="1.0" xmlns="http://www.w3.org/2000/svg"
 width="500.000000pt" height="500.000000pt" viewBox="0 0 500.000000 500.000000"
 preserveAspectRatio="xMidYMid meet">
<metadata>
Created by potrace 1.16, written by Peter Selinger 2001-2019
</metadata>
<g transform="translate(0.000000,500.000000) scale(0.100000,-0.100000)"
fill="#000000" stroke="none">
<path d="M790 3063 c-95 -34 -180 -154 -180 -255 0 -82 74 -254 206 -473 38
-63 74 -113 79 -112 17 6 133 203 203 347 65 130 67 138 70 221 3 76 1 92 -22
136 -64 127 -216 185 -356 136z m159 -148 c29 -14 61 -68 61 -102 0 -32 -39
-84 -76 -99 -62 -26 -137 16 -150 83 -17 92 80 162 165 118z"/>
<path d="M1397 2537 c-32 -90 -57 -166 -57 -170 0 -4 22 -7 49 -7 44 0 49 3
55 25 6 23 11 25 61 25 50 0 56 -3 65 -25 8 -22 15 -25 59 -25 l50 0 -58 168
-58 167 -55 3 -55 3 -56 -164z"/>
<path d="M1740 2530 l0 -170 45 0 44 0 3 61 3 62 34 -62 35 -61 53 0 c29 0 53
2 53 4 0 3 -16 32 -36 65 l-36 60 32 28 c25 22 31 36 32 69 1 84 -46 114 -176
114 l-86 0 0 -170z"/>
<path d="M2155 2676 c-54 -33 -78 -76 -79 -145 -1 -66 23 -114 73 -148 86 -58
203 -32 255 56 27 47 27 137 -2 183 -47 77 -166 103 -247 54z m158 -87 c24
-29 22 -90 -4 -123 -16 -20 -29 -26 -59 -26 -30 0 -43 6 -59 26 -23 29 -28 83
-10 115 23 43 99 47 132 8z"/>
<path d="M2500 2580 c0 -152 11 -183 76 -212 81 -35 159 -11 196 63 14 27 18
59 18 152 l0 117 -45 0 -45 0 0 -108 c0 -119 -12 -152 -55 -152 -47 0 -55 22
-55 146 l0 114 -45 0 -45 0 0 -120z"/>
<path d="M2880 2530 l0 -170 45 0 44 0 3 96 3 97 60 -96 60 -96 48 -1 47 0 0
170 0 170 -45 0 -45 0 0 -97 0 -98 -63 97 -62 98 -47 0 -48 0 0 -170z"/>
<path d="M3290 2530 l0 -170 90 0 c71 0 99 4 129 20 96 49 116 187 37 266 -39
39 -89 54 -183 54 l-73 0 0 -170z m188 65 c52 -61 13 -165 -63 -165 l-35 0 0
101 0 102 38 -6 c22 -4 46 -17 60 -32z"/>
<path d="M3850 2573 c0 -111 3 -132 20 -161 50 -81 184 -81 244 1 18 25 21 46
25 158 l3 129 -46 0 -46 0 0 -102 c0 -118 -12 -151 -53 -156 -51 -6 -57 9 -57
139 l0 119 -45 0 -45 0 0 -127z"/>
<path d="M4253 2665 c-32 -32 -35 -39 -30 -78 7 -49 30 -72 90 -88 49 -13 78
-35 70 -55 -8 -22 -54 -17 -60 6 -4 17 -14 20 -55 20 l-50 0 6 -32 c24 -125
256 -109 256 17 0 62 -10 71 -127 115 -22 8 -33 19 -33 32 0 29 30 35 51 10
13 -17 28 -22 64 -22 50 0 48 -4 30 58 -9 32 -55 52 -121 52 -51 0 -59 -3 -91
-35z"/>
</g>
</svg>
